# This file uses centimeters as units for non-parametric coordinates.

mtllib glass_wall.mtl
g default
v 11.060854 24.918314 49.958160
v 10.995875 24.761440 49.958160
v 11.060854 24.761440 50.115032
v 11.217728 24.761440 50.180012
v 11.217728 24.918314 50.115032
v 11.217728 24.983294 49.958160
v 35.914188 24.918314 49.958160
v 35.757317 24.983294 49.958160
v 35.757317 24.918314 50.115032
v 35.757317 24.761440 50.180012
v 35.914188 24.761440 50.115032
v 35.979168 24.761440 49.958160
v 11.060854 0.064979 49.958160
v 11.217728 0.000000 49.958160
v 11.217728 0.064979 50.115032
v 11.217728 0.221853 50.180012
v 11.060854 0.221853 50.115032
v 10.995875 0.221853 49.958160
v 35.914188 0.064979 49.958160
v 35.979168 0.221853 49.958160
v 35.914188 0.221853 50.115032
v 35.757317 0.221853 50.180012
v 35.757317 0.064979 50.115032
v 35.757317 0.000000 49.958160
v 11.217728 24.918314 48.900295
v 11.217728 24.761440 48.835316
v 11.060854 24.761440 48.900295
v 10.995875 24.761440 49.057167
v 11.060854 24.918314 49.057167
v 11.217728 24.983294 49.057167
v 11.217728 0.064979 48.900295
v 11.217728 0.000000 49.057167
v 11.060854 0.064979 49.057167
v 10.995875 0.221853 49.057167
v 11.060854 0.221853 48.900295
v 11.217728 0.221853 48.835316
v 35.914188 0.221853 48.900295
v 35.979168 0.221853 49.057167
v 35.914188 0.064979 49.057167
v 35.757317 0.000000 49.057167
v 35.757317 0.064979 48.900295
v 35.757317 0.221853 48.835316
v 35.757317 24.918314 48.900295
v 35.757317 24.983294 49.057167
v 35.914188 24.918314 49.057167
v 35.979168 24.761440 49.057167
v 35.914188 24.761440 48.900295
v 35.757317 24.761440 48.835316
v 11.089685 24.889482 50.086201
v 35.885357 24.889482 50.086201
v 11.089685 0.093811 50.086201
v 35.885357 0.093811 50.086201
v 11.089685 24.889482 48.929127
v 11.089685 0.093811 48.929127
v 35.885357 0.093811 48.929127
v 35.885357 24.889482 48.929127
vt 1.421550 0.766601
vt 0.008880 0.991120
vt 0.991120 0.991120
vt 0.935143 0.766601
vt 0.991120 0.008880
vt 0.926349 0.766602
vt 0.439942 0.766601
vt -0.550460 0.778422
vt -0.064053 0.778422
vt 0.935143 0.778422
vt -0.020726 0.993490
vt 0.439942 0.778422
vt -0.020726 0.011250
vt -0.055259 0.778422
vt -1.002966 0.011250
vt -1.002966 0.993490
vt 0.008880 0.008880
vt 1.421550 0.778422
vt 0.926349 0.778422
vt -0.055259 0.766601
vt 0.431148 0.766601
vt 0.431148 0.778422
vt -0.550460 0.766601
vt -0.064053 0.766601
vt 1.425947 0.765718
vt -0.554857 0.765718
vt -0.000000 0.994583
vt 1.423265 0.763691
vt -0.552175 0.763691
vt 0.005417 1.000000
vt -0.059656 0.766451
vt 0.994583 1.000000
vt -0.062338 0.763691
vt -0.056974 0.763691
vt 1.000000 0.994583
vt 0.930746 0.766451
vt 0.005417 -0.000000
vt 0.928064 0.763691
vt 0.933428 0.763691
vt -0.000000 0.005417
vt 0.435545 0.766451
vt 1.000000 0.005417
vt 0.432863 0.763691
vt 0.438227 0.763691
vt 0.994583 -0.000000
vt -0.017263 1.002370
vt -0.552175 0.781332
vt 1.423265 0.781332
vt -0.011846 0.996953
vt -0.554857 0.779305
vt 1.425947 0.779305
vt 0.928064 0.781332
vt -0.017263 0.002370
vt 0.930746 0.778572
vt -0.011846 0.007787
vt 0.933428 0.781332
vt 0.432863 0.781332
vt -1.011846 0.007787
vt 0.435545 0.778572
vt -1.006429 0.002370
vt 0.438227 0.781332
vt -0.062338 0.781332
vt -1.006429 1.002370
vt -0.059656 0.778572
vt -1.011846 0.996953
vt -0.056974 0.781332
vt 1.425947 0.763691
vt 0.000000 1.000000
vt -0.554857 0.763691
vt -0.059656 0.763691
vt 1.000000 1.000000
vt 0.930746 0.763691
vt 0.000000 0.000000
vt 0.435545 0.763691
vt 1.000000 0.000000
vt -0.011846 1.002370
vt 1.425947 0.781332
vt -0.554857 0.781332
vt 0.930746 0.781332
vt -0.011846 0.002370
vt 0.435545 0.781332
vt -1.011846 0.002370
vt -0.059656 0.781332
vt -1.011846 1.002370
vn -0.998123 0.002492 0.061189
vn -0.706463 0.706459 0.042727
vn -0.706462 0.706460 -0.042727
vn -0.998123 0.002492 -0.061189
vn -0.002492 0.998123 0.061192
vn -0.002492 0.998123 -0.061192
vn -0.002625 0.002625 0.999993
vn -0.707101 0.001762 0.707110
vn -0.707101 -0.001762 0.707110
vn -0.002625 -0.002625 0.999993
vn -0.998123 -0.002492 0.061189
vn -0.001762 0.707101 0.707110
vn 0.001762 0.707101 0.707110
vn 0.002492 0.998123 0.061192
vn 0.002625 0.002625 0.999993
vn 0.706465 0.706457 0.042726
vn 0.706465 0.706458 -0.042726
vn 0.002492 0.998123 -0.061192
vn 0.998123 0.002492 0.061190
vn 0.998123 0.002492 -0.061190
vn 0.707103 0.001762 0.707109
vn 0.707102 -0.001762 0.707109
vn 0.998123 -0.002492 0.061190
vn 0.002625 -0.002625 0.999993
vn -0.002492 -0.998123 0.061190
vn -0.706461 -0.706461 0.042727
vn -0.706463 -0.706459 -0.042727
vn -0.002492 -0.998123 -0.061190
vn -0.998123 -0.002492 -0.061189
vn -0.001762 -0.707104 0.707108
vn 0.001762 -0.707104 0.707108
vn 0.002492 -0.998123 0.061190
vn 0.706464 -0.706459 0.042727
vn 0.706465 -0.706457 -0.042727
vn 0.998123 -0.002492 -0.061190
vn 0.002492 -0.998123 -0.061190
vn -0.002625 0.002625 -0.999993
vn -0.001762 0.707101 -0.707110
vn 0.001762 0.707101 -0.707110
vn 0.002625 0.002625 -0.999993
vn -0.707109 0.001762 -0.707103
vn -0.707109 -0.001762 -0.707102
vn -0.002625 -0.002625 -0.999993
vn -0.001762 -0.707104 -0.707108
vn 0.001762 -0.707104 -0.707108
vn 0.002625 -0.002625 -0.999993
vn 0.707110 -0.001762 -0.707101
vn 0.707110 0.001762 -0.707101
vn -0.577349 0.577347 0.577354
vn 0.577355 0.577347 0.577349
vn -0.577346 -0.577351 0.577354
vn 0.577351 -0.577348 0.577352
vn -0.577346 0.577350 -0.577355
vn -0.577347 -0.577351 -0.577353
vn 0.577353 -0.577348 -0.577350
vn 0.577350 0.577348 -0.577354
s 1
g glass_wall:pPlane1
usemtl glass_wall:initialShadingGroup
f 2/1/1 1/25/2 29/51/3 28/18/4
f 1/26/2 6/23/5 30/8/6 29/50/3
f 4/2/7 3/27/8 17/40/9 16/17/10
f 3/28/8 2/1/1 18/4/11 17/39/9
f 6/23/5 5/29/12 9/33/13 8/24/14
f 5/30/12 4/2/7 10/3/15 9/32/13
f 8/24/14 7/31/16 45/64/17 44/9/18
f 7/31/16 12/20/19 46/14/20 45/64/17
f 12/20/19 11/34/21 21/43/22 20/21/23
f 11/35/21 10/3/15 22/5/24 21/42/22
f 14/6/25 13/36/26 33/54/27 32/19/28
f 13/36/26 18/4/11 34/10/29 33/54/27
f 16/17/10 15/37/30 23/45/31 22/5/24
f 15/38/30 14/6/25 24/7/32 23/44/31
f 20/21/23 19/41/33 39/59/34 38/22/35
f 19/41/33 24/7/32 40/12/36 39/59/34
f 26/11/37 25/46/38 43/63/39 48/16/40
f 25/47/38 30/8/6 44/9/18 43/62/39
f 28/18/4 27/48/41 35/56/42 34/10/29
f 27/49/41 26/11/37 36/13/43 35/55/42
f 32/19/28 31/52/44 41/61/45 40/12/36
f 31/53/44 36/13/43 42/15/46 41/60/45
f 38/22/35 37/57/47 47/66/48 46/14/20
f 37/58/47 42/15/46 48/16/40 47/65/48
f 10/3/15 4/2/7 16/17/10 22/5/24
f 18/4/11 2/1/1 28/18/4 34/10/29
f 24/7/32 14/6/25 32/19/28 40/12/36
f 12/20/19 20/21/23 38/22/35 46/14/20
f 6/23/5 8/24/14 44/9/18 30/8/6
f 26/11/37 48/16/40 42/15/46 36/13/43
f 5/29/12 6/23/5 1/26/2 49/69/49
f 1/25/2 2/1/1 3/28/8 49/67/49
f 3/27/8 4/2/7 5/30/12 49/68/49
f 11/34/21 12/20/19 7/31/16 50/70/50
f 7/31/16 8/24/14 9/33/13 50/70/50
f 9/32/13 10/3/15 11/35/21 50/71/50
f 17/39/9 18/4/11 13/36/26 51/72/51
f 13/36/26 14/6/25 15/38/30 51/72/51
f 15/37/30 16/17/10 17/40/9 51/73/51
f 23/44/31 24/7/32 19/41/33 52/74/52
f 19/41/33 20/21/23 21/43/22 52/74/52
f 21/42/22 22/5/24 23/45/31 52/75/52
f 29/50/3 30/8/6 25/47/38 53/78/53
f 25/46/38 26/11/37 27/49/41 53/76/53
f 27/48/41 28/18/4 29/51/3 53/77/53
f 35/55/42 36/13/43 31/53/44 54/80/54
f 31/52/44 32/19/28 33/54/27 54/79/54
f 33/54/27 34/10/29 35/56/42 54/79/54
f 41/60/45 42/15/46 37/58/47 55/82/55
f 37/57/47 38/22/35 39/59/34 55/81/55
f 39/59/34 40/12/36 41/61/45 55/81/55
f 47/65/48 48/16/40 43/63/39 56/84/56
f 43/62/39 44/9/18 45/64/17 56/83/56
f 45/64/17 46/14/20 47/66/48 56/83/56
